<?xml version="1.0" encoding="utf-8"?>
<!-- Generator: Adobe Illustrator 18.0.0, SVG Export Plug-In . SVG Version: 6.00 Build 0)  -->
<!DOCTYPE svg PUBLIC "-//W3C//DTD SVG 1.1//EN" "http://www.w3.org/Graphics/SVG/1.1/DTD/svg11.dtd">
<svg version="1.1" id="Layer_1" xmlns="http://www.w3.org/2000/svg" xmlns:xlink="http://www.w3.org/1999/xlink" x="0px" y="0px"
	 viewBox="0 0 512 512" enable-background="new 0 0 512 512" xml:space="preserve">
<g>
	<g>
		<g>
			<path d="M368.5,241.7c-47.7,0-95.4,0-143.1,0c-24.5,0-49,0-73.5,0c-7.1,0-15.1,0.8-18-7.7c-2.7-7.9,1.5-17.4,10.5-17.8
				c1.2,0,2.3,0,3.5,0c54.3,0,108.5,0,162.8,0c16.8,0,33.5,0,50.3,0c2.5,0,5,0,7.5,0C383.4,216.3,383.3,241.1,368.5,241.7
				c-9.6,0.4-9.7,15.4,0,15c12.4-0.5,23.2-8.8,25.5-21.3c1.9-10.3-0.8-21.5-9.1-28.2c-7.4-6-15.6-5.9-24.3-5.9c-24.7,0-49.4,0-74,0
				c-31.8,0-63.6,0-95.5,0c-16,0-32.1-0.5-48,0.1c-25.4,0.9-33.3,36.8-13.5,50.6c7.2,5,15,4.7,23.2,4.7c24.9,0,49.7,0,74.6,0
				c47.1,0,94.1,0,141.2,0C378.2,256.7,378.2,241.7,368.5,241.7z"/>
		</g>
	</g>
	<g>
		<g>
			<path d="M308.3,287.1c-34.6,0-69.2,0-103.8,0c2.5,2.5,5,5,7.5,7.5c0-15.1,0-30.3,0-45.4c-2.5,2.5-5,5-7.5,7.5
				c34.6,0,69.2,0,103.8,0c-2.5-2.5-5-5-7.5-7.5c0,15.1,0,30.3,0,45.4c0,9.7,15,9.7,15,0c0-15.1,0-30.3,0-45.4
				c0-4.1-3.4-7.5-7.5-7.5c-34.6,0-69.2,0-103.8,0c-4.1,0-7.5,3.4-7.5,7.5c0,15.1,0,30.3,0,45.4c0,4.1,3.4,7.5,7.5,7.5
				c34.6,0,69.2,0,103.8,0C318,302.1,318,287.1,308.3,287.1z"/>
		</g>
	</g>
	<g>
		<g>
			<g>
				<g>
					<g>
						<path d="M198.6,453.6c-5.2-8.1-12.4-16.6-23.2-12.4c-12.4,4.8-15.2,20.2-12.8,31.8c2.5,11.9,14.3,22.1,26.2,23.4
							c10.1,1.1,19.6-3.5,27-10.1c22.2-20,19.1-52.7,19.1-79.8c0-37.3,0-74.6,0-111.8c0-9.7-15-9.7-15,0c0,46.5,0,93.1,0,139.6
							c0,16-4.8,39.5-21.9,46c-9.8,3.8-19.2-2.9-21.2-12.8c-0.6-3,0-10.9,3.7-12.3c2-0.8,4.4,4.6,5.2,5.9
							C190.8,469.3,203.8,461.8,198.6,453.6L198.6,453.6z"/>
					</g>
				</g>
			</g>
		</g>
	</g>
	<g>
		<g>
			<g>
				<g>
					<g>
						<path d="M326.4,461.2c1.2-1.9,2.6-5.4,5-6.1c2.8-0.8,4,8.9,4.1,10c0.3,9.4-8.8,18-18.2,16.1c-18.9-3.8-25-29.9-25-46
							c0-23.4,0-46.8,0-70.1c0-23.5,0-47,0-70.5c0-9.7-15-9.7-15,0c0,46.5,0,93.1,0,139.6c0,13.4,2.6,26.4,8.8,38.4
							c7,13.5,21.2,25.5,37.3,23.7c19.7-2.2,31.6-23.8,25.3-41.9c-3-8.6-10.7-15.5-20.2-14c-7.4,1.2-11.3,7.3-15,13.2
							C308.2,461.8,321.2,469.3,326.4,461.2L326.4,461.2z"/>
					</g>
				</g>
			</g>
		</g>
	</g>
	<g>
		<g>
			<g>
				<path d="M222.5,132c22.6,0,45.2,0,67.7,0c-2.3,0-3-1.1-1.3,0.9c0.9,1,1.7,2.2,2.4,3.3c1.6,2.4,3,5,4,7.7
					c2.5,6.3,3.2,12.9,2.7,19.6c-0.7,10.6-6.5,20.2-14.2,27.3c-16.3,14.9-41.9,13.2-57.3-1.9c-6.8-6.7-11.2-15.9-12.1-25.4
					c-0.6-6.1,0.3-12.1,2.1-17.9c0.9-2.8,2.3-5.4,3.8-8c0.7-1.1,3.5-5.8,4-5.9c9.5-1.9,5.5-16.4-4-14.5c-6,1.2-9.9,8-12.9,12.8
					c-3.6,5.8-6,12.5-7.2,19.2c-2.2,12.4-0.1,24.8,5.4,36.1c10.3,21,34.5,33.3,57.4,30.4c23.5-3,43-20.4,48.6-43.5
					c3.2-13,1.1-26.4-4.5-38.4c-3.5-7.5-9.4-17-18.5-17c-22.1,0-44.2,0-66.3,0C212.9,117,212.9,132,222.5,132z"/>
			</g>
		</g>
	</g>
	<g>
		<g>
			<path d="M263.9,124.5c0-18.9,0-37.8,0-56.6c0-9.7-15-9.7-15,0c0,18.9,0,37.8,0,56.6C248.9,134.2,263.9,134.2,263.9,124.5
				L263.9,124.5z"/>
		</g>
	</g>
	<g>
		<g>
			<g>
				<path d="M263.5,60.4c-3.6,0-7.1,0-10.7,0c-3.6,0-5.8,0-7.1-4.1c-1.2-3.7,1-7.4,2.4-10.8c1.6-4,3.3-8,4.9-12
					c0.5-1.1,0.5-1.3,2-2.7c0.7-0.7,2.2-0.6,2.9,0c1.6,1.2,1.6,1.7,2,2.7c0.8,1.9,1.6,3.8,2.4,5.8c1.4,3.4,2.8,6.9,4.2,10.3
					C267.8,52.6,268.3,60.1,263.5,60.4c-9.6,0.6-9.7,15.6,0,15c10.6-0.6,18.2-9.1,18.9-19.6c0.5-6.8-2.4-12.5-4.9-18.6
					c-2.4-5.8-4.3-12.4-9-16.9c-7.2-6.9-18.1-5.8-25,0.8c-4.3,4.2-6.3,11.6-8.5,17c-2.7,6.5-5.4,12.3-4.3,19.7
					c1.4,9.3,8.9,17.6,18.7,17.6c4.7,0,9.3,0,14,0C273.2,75.4,273.2,60.4,263.5,60.4z"/>
			</g>
		</g>
	</g>
	<g>
		<g>
			<g>
				<path d="M167.9,75.4c27.3,1,56,19.4,56.4,49.1c0.1,9.7,15.1,9.7,15,0c-0.5-38.1-35.8-62.7-71.4-64.1
					C158.2,60,158.2,75,167.9,75.4L167.9,75.4z"/>
			</g>
		</g>
		<g>
			<g>
				<g>
					<path d="M163.1,58.4c-1.1,3.4-2.3,6.8-3.4,10.2c-1.1,3.2-1.7,4.9-5.6,5c-3.7,0.1-6.2-2.5-8.7-4.7c-3.3-2.8-6.5-5.7-9.8-8.5
						c-2.1-1.9-4.4-4.1-2-6.6c1.6-1.6,6.7-1.1,8.7-1.3C146.7,52.3,165.6,49.1,163.1,58.4c-2.5,9.4,12,13.3,14.5,4
						c2.8-10.6-3.9-20.8-14-24.3c-6.3-2.2-12.8-1.1-19.3-0.7c-6.5,0.4-13.3,0.3-18.9,3.9c-8.3,5.4-9.9,16.3-4.9,24.5
						c3,4.9,8.7,8.7,12.9,12.4c5.5,4.8,10.6,9.2,18.2,10.1c9.3,1.1,18.5-3.7,21.5-12.7c1.5-4.4,3-8.9,4.4-13.3
						C180.7,53.2,166.2,49.3,163.1,58.4z"/>
				</g>
			</g>
		</g>
	</g>
	<g>
		<g>
			<g>
				<path d="M287.8,124.5c0.4-29.7,29.1-48.1,56.4-49.1c9.6-0.4,9.7-15.4,0-15c-35.5,1.4-70.9,26-71.4,64.1
					C272.6,134.2,287.6,134.2,287.8,124.5L287.8,124.5z"/>
			</g>
		</g>
		<g>
			<g>
				<g>
					<path d="M334.4,62.4c1.5,4.4,3,8.9,4.4,13.3c3,9.1,12.2,13.9,21.5,12.7c7.6-0.9,12.7-5.3,18.2-10.1c4.5-3.9,9.4-7.5,12.9-12.4
						c5.7-7.7,2.9-19.5-4.9-24.5c-5.6-3.7-12.4-3.5-18.9-3.9c-6.5-0.4-13-1.5-19.3,0.7C338.3,41.6,331.6,51.9,334.4,62.4
						c2.5,9.3,16.9,5.4,14.5-4c-2.5-9.4,16.4-6.1,20.7-5.8c2.3,0.2,6.8-0.3,8.7,1.3c2.7,2.2,0,4.9-2,6.6c-3.3,2.8-6.5,5.7-9.8,8.5
						c-2.7,2.3-4.9,4.6-8.7,4.7c-3.9,0.2-4.6-2-5.6-5c-1.1-3.4-2.3-6.8-3.4-10.2C345.8,49.3,331.3,53.2,334.4,62.4z"/>
				</g>
			</g>
		</g>
	</g>
</g>
</svg>
